<mxfile host="app.diagrams.net" modified="2021-12-03T06:55:06.929Z" agent="5.0 (Macintosh; Intel Mac OS X 10_15_7) AppleWebKit/537.36 (KHTML, like Gecko) Chrome/96.0.4664.55 Safari/537.36" etag="wwstkXb43PjdW6BbVUKT" version="15.0.3" type="github">
  <diagram id="a9KHwp6-hxeuCTIefRZS" name="第 1 页">
    <mxGraphModel dx="1186" dy="557" grid="1" gridSize="10" guides="1" tooltips="1" connect="1" arrows="1" fold="1" page="1" pageScale="1" pageWidth="827" pageHeight="1169" math="0" shadow="0">
      <root>
        <mxCell id="0" />
        <mxCell id="1" parent="0" />
        <mxCell id="XRxO_KVaIWqnZsoQvr81-1" value="&lt;font style=&quot;font-size: 36px&quot;&gt;A&lt;/font&gt;" style="ellipse;whiteSpace=wrap;html=1;aspect=fixed;" vertex="1" parent="1">
          <mxGeometry x="90" y="415" width="80" height="80" as="geometry" />
        </mxCell>
        <mxCell id="XRxO_KVaIWqnZsoQvr81-2" value="&lt;font style=&quot;font-size: 36px&quot;&gt;E&lt;/font&gt;" style="ellipse;whiteSpace=wrap;html=1;aspect=fixed;" vertex="1" parent="1">
          <mxGeometry x="340" y="465" width="80" height="80" as="geometry" />
        </mxCell>
        <mxCell id="XRxO_KVaIWqnZsoQvr81-3" value="&lt;font style=&quot;font-size: 36px&quot;&gt;D&lt;/font&gt;" style="ellipse;whiteSpace=wrap;html=1;aspect=fixed;" vertex="1" parent="1">
          <mxGeometry x="330" y="305" width="80" height="80" as="geometry" />
        </mxCell>
        <mxCell id="XRxO_KVaIWqnZsoQvr81-4" value="&lt;font style=&quot;font-size: 36px&quot;&gt;C&lt;/font&gt;" style="ellipse;whiteSpace=wrap;html=1;aspect=fixed;" vertex="1" parent="1">
          <mxGeometry x="200" y="485" width="80" height="80" as="geometry" />
        </mxCell>
        <mxCell id="XRxO_KVaIWqnZsoQvr81-5" value="&lt;font style=&quot;font-size: 36px&quot;&gt;B&lt;/font&gt;" style="ellipse;whiteSpace=wrap;html=1;aspect=fixed;" vertex="1" parent="1">
          <mxGeometry x="180" y="295" width="80" height="80" as="geometry" />
        </mxCell>
        <mxCell id="XRxO_KVaIWqnZsoQvr81-6" value="" style="endArrow=classic;html=1;exitX=1;exitY=0;exitDx=0;exitDy=0;entryX=0;entryY=1;entryDx=0;entryDy=0;" edge="1" parent="1" source="XRxO_KVaIWqnZsoQvr81-1" target="XRxO_KVaIWqnZsoQvr81-5">
          <mxGeometry width="50" height="50" relative="1" as="geometry">
            <mxPoint x="130" y="425" as="sourcePoint" />
            <mxPoint x="180" y="375" as="targetPoint" />
          </mxGeometry>
        </mxCell>
        <mxCell id="XRxO_KVaIWqnZsoQvr81-7" value="" style="endArrow=classic;html=1;exitX=1;exitY=1;exitDx=0;exitDy=0;entryX=0.021;entryY=0.5;entryDx=0;entryDy=0;entryPerimeter=0;" edge="1" parent="1" source="XRxO_KVaIWqnZsoQvr81-1" target="XRxO_KVaIWqnZsoQvr81-4">
          <mxGeometry width="50" height="50" relative="1" as="geometry">
            <mxPoint x="168.28427124746213" y="436.71572875253787" as="sourcePoint" />
            <mxPoint x="201.71572875253787" y="373.28427124746213" as="targetPoint" />
          </mxGeometry>
        </mxCell>
        <mxCell id="XRxO_KVaIWqnZsoQvr81-8" value="" style="endArrow=classic;html=1;exitX=1;exitY=0.5;exitDx=0;exitDy=0;entryX=0;entryY=0.5;entryDx=0;entryDy=0;" edge="1" parent="1" source="XRxO_KVaIWqnZsoQvr81-5" target="XRxO_KVaIWqnZsoQvr81-3">
          <mxGeometry width="50" height="50" relative="1" as="geometry">
            <mxPoint x="178.28427124746213" y="446.71572875253787" as="sourcePoint" />
            <mxPoint x="211.71572875253787" y="383.28427124746213" as="targetPoint" />
          </mxGeometry>
        </mxCell>
        <mxCell id="XRxO_KVaIWqnZsoQvr81-9" value="" style="endArrow=classic;html=1;exitX=1;exitY=0.5;exitDx=0;exitDy=0;entryX=0;entryY=0.5;entryDx=0;entryDy=0;" edge="1" parent="1" source="XRxO_KVaIWqnZsoQvr81-4" target="XRxO_KVaIWqnZsoQvr81-2">
          <mxGeometry width="50" height="50" relative="1" as="geometry">
            <mxPoint x="188.28427124746213" y="456.71572875253787" as="sourcePoint" />
            <mxPoint x="221.71572875253787" y="393.28427124746213" as="targetPoint" />
          </mxGeometry>
        </mxCell>
        <mxCell id="XRxO_KVaIWqnZsoQvr81-10" value="&lt;font style=&quot;font-size: 36px&quot;&gt;A&lt;/font&gt;" style="ellipse;whiteSpace=wrap;html=1;aspect=fixed;" vertex="1" parent="1">
          <mxGeometry x="640" y="390" width="80" height="80" as="geometry" />
        </mxCell>
        <mxCell id="XRxO_KVaIWqnZsoQvr81-11" value="&lt;span style=&quot;font-size: 18px&quot;&gt;MockC&lt;/span&gt;" style="ellipse;whiteSpace=wrap;html=1;aspect=fixed;" vertex="1" parent="1">
          <mxGeometry x="780" y="430" width="80" height="80" as="geometry" />
        </mxCell>
        <mxCell id="XRxO_KVaIWqnZsoQvr81-12" value="&lt;font style=&quot;font-size: 18px&quot;&gt;MockB&lt;/font&gt;" style="ellipse;whiteSpace=wrap;html=1;aspect=fixed;" vertex="1" parent="1">
          <mxGeometry x="730" y="270" width="80" height="80" as="geometry" />
        </mxCell>
        <mxCell id="XRxO_KVaIWqnZsoQvr81-13" value="" style="endArrow=classic;html=1;exitX=1;exitY=0;exitDx=0;exitDy=0;entryX=0;entryY=1;entryDx=0;entryDy=0;" edge="1" parent="1" source="XRxO_KVaIWqnZsoQvr81-10" target="XRxO_KVaIWqnZsoQvr81-12">
          <mxGeometry width="50" height="50" relative="1" as="geometry">
            <mxPoint x="680" y="400" as="sourcePoint" />
            <mxPoint x="730" y="350" as="targetPoint" />
          </mxGeometry>
        </mxCell>
        <mxCell id="XRxO_KVaIWqnZsoQvr81-14" value="" style="endArrow=classic;html=1;exitX=1;exitY=1;exitDx=0;exitDy=0;entryX=0.021;entryY=0.5;entryDx=0;entryDy=0;entryPerimeter=0;" edge="1" parent="1" source="XRxO_KVaIWqnZsoQvr81-10" target="XRxO_KVaIWqnZsoQvr81-11">
          <mxGeometry width="50" height="50" relative="1" as="geometry">
            <mxPoint x="718.2842712474621" y="411.71572875253787" as="sourcePoint" />
            <mxPoint x="751.7157287525379" y="348.28427124746213" as="targetPoint" />
          </mxGeometry>
        </mxCell>
        <mxCell id="XRxO_KVaIWqnZsoQvr81-15" value="" style="shape=flexArrow;endArrow=classic;html=1;" edge="1" parent="1">
          <mxGeometry width="50" height="50" relative="1" as="geometry">
            <mxPoint x="450" y="430" as="sourcePoint" />
            <mxPoint x="600" y="430" as="targetPoint" />
          </mxGeometry>
        </mxCell>
        <mxCell id="XRxO_KVaIWqnZsoQvr81-16" value="&lt;font style=&quot;font-size: 18px&quot;&gt;Unit Test&lt;/font&gt;" style="text;html=1;align=center;verticalAlign=middle;resizable=0;points=[];autosize=1;strokeColor=none;" vertex="1" parent="1">
          <mxGeometry x="470" y="400" width="90" height="20" as="geometry" />
        </mxCell>
      </root>
    </mxGraphModel>
  </diagram>
</mxfile>
